<svg xmlns="http://www.w3.org/2000/svg" width="215" height="39" fill="none" viewBox="0 0 215 39">
  <path fill="#fff" d="M112.674 17.855h5.859l-3.186 14.877h5.481L120.369 35h-11.34l3.645-17.145zm16.01 11.016c-.09.396-.162.738-.216 1.026a4.408 4.408 0 00-.081.81c0 .63.216 1.134.648 1.512.45.378 1.107.567 1.971.567.63 0 1.143-.108 1.539-.324.414-.216.747-.504.999-.864.27-.36.477-.774.621-1.242.162-.468.297-.963.405-1.485l2.295-11.016h2.457l-2.349 11.07c-.18.864-.441 1.674-.783 2.43a5.918 5.918 0 01-1.485 1.998c-.63.576-1.449 1.035-2.457 1.377-1.008.324-2.259.486-3.753.486-2.07 0-3.6-.333-4.59-.999-.99-.684-1.485-1.728-1.485-3.132 0-.63.081-1.431.243-2.403.162-.972.369-2.025.621-3.159l1.647-7.668h6.129l-2.376 11.016zm26.24-8.964h-4.347L147.364 35h-5.832l3.213-15.093h-4.293l.486-2.052h14.445l-.459 2.052zM159.29 35h-5.832l3.645-17.145h5.859L159.29 35zm14.072-17.415c1.548 0 2.799.198 3.753.594.972.396 1.737 1.008 2.295 1.836.36.558.639 1.188.837 1.89.198.702.297 1.512.297 2.43 0 .792-.072 1.584-.216 2.376a13.907 13.907 0 01-.621 2.295c-.252.72-.567 1.404-.945 2.052a9.084 9.084 0 01-1.215 1.674c-.846.918-1.827 1.566-2.943 1.944-1.098.36-2.457.54-4.077.54-1.566 0-2.826-.162-3.78-.486-.954-.324-1.71-.846-2.268-1.566-.396-.504-.711-1.143-.945-1.917-.216-.774-.324-1.746-.324-2.916 0-1.998.351-3.78 1.053-5.346.72-1.584 1.737-2.835 3.051-3.753a8.508 8.508 0 012.646-1.242c.972-.27 2.106-.405 3.402-.405zm-3.051 15.741c.414 0 .801-.18 1.161-.54.378-.378.72-.873 1.026-1.485.324-.63.612-1.341.864-2.133.27-.792.495-1.611.675-2.457.18-.846.315-1.683.405-2.511a18.28 18.28 0 00.162-2.295c0-.936-.099-1.575-.297-1.917-.18-.36-.45-.54-.81-.54-.414 0-.81.18-1.188.54-.378.36-.738.846-1.08 1.458a13.348 13.348 0 00-.891 2.079 31.194 31.194 0 00-.675 2.403 30.61 30.61 0 00-.432 2.457 20.4 20.4 0 00-.135 2.241c0 1.026.108 1.737.324 2.133.234.378.531.567.891.567zM195.139 35h-6.318l-2.997-12.393L183.178 35h-2.43l3.645-17.145h6.453l2.835 12.555 2.673-12.555h2.484L195.139 35zm13.623-12.177c.054-.27.081-.639.081-1.107 0-.27-.018-.531-.054-.783a2.491 2.491 0 00-.189-.702.99.99 0 00-.405-.486c-.18-.126-.414-.189-.702-.189-.324 0-.621.072-.891.216a2.624 2.624 0 00-1.215 1.35 2.593 2.593 0 00-.162.918c0 .468.117.828.351 1.08.252.252.576.459.972.621a8 8 0 001.35.405c.504.108 1.026.234 1.566.378.45.126.9.288 1.35.486.45.198.846.468 1.188.81.36.324.648.756.864 1.296.216.522.324 1.179.324 1.971 0 1.134-.225 2.088-.675 2.862a5.35 5.35 0 01-1.863 1.89c-.792.486-1.737.837-2.835 1.053-1.08.216-2.259.324-3.537.324-1.296 0-2.358-.081-3.186-.243-.81-.18-1.449-.369-1.917-.567-.558-.234-.972-.504-1.242-.81l.918-3.699h4.752a14.92 14.92 0 00-.054.675c-.018.27-.027.486-.027.648a3 3 0 00.081.675c.054.234.135.45.243.648.126.198.297.36.513.486.216.126.486.189.81.189.36 0 .675-.081.945-.243.288-.162.522-.36.702-.594.198-.252.342-.522.432-.81a2.67 2.67 0 00.162-.891c0-.396-.099-.729-.297-.999a2.128 2.128 0 00-.756-.675 4.679 4.679 0 00-1.134-.486 54.627 54.627 0 00-1.296-.432 20.544 20.544 0 01-1.377-.459 4.7 4.7 0 01-1.296-.756 4.155 4.155 0 01-.999-1.215c-.252-.504-.378-1.143-.378-1.917 0-1.152.288-2.115.864-2.889a6.888 6.888 0 012.214-1.917c.9-.486 1.881-.828 2.943-1.026a15.19 15.19 0 013.024-.324c1.26 0 2.34.153 3.24.459.918.288 1.611.63 2.079 1.026l-.999 3.753h-4.482zM9.209 26.307l6.669-7.479h3.05l-6.047 6.561L16.985 36h-5.886l-2.376-7.533L7.13 36H1.298l3.645-17.145h5.859l-1.593 7.452zm12.16-7.452h11.368l-.432 2.052h-5.508l-1.134 5.211h4.617l-.432 2.025H25.23l-1.242 5.778h5.508L29.092 36H17.725l3.645-17.145zM41.808 29.52L40.43 36h-5.86l1.486-6.939-2.646-10.206h6.48l1.836 6.777 4.05-6.777h2.916L41.807 29.52z"/>
  <path fill="#fff" fill-rule="evenodd" d="M95.4 25.954a4.19 4.19 0 002.224-1.81 4.095 4.095 0 00.517-2.797 4.13 4.13 0 00-1.433-2.468A4.237 4.237 0 0094 17.903c-.991 0-1.95.346-2.708.976a4.132 4.132 0 00-1.433 2.468 4.096 4.096 0 00.517 2.797 4.189 4.189 0 002.224 1.81v4.377c0 .367.148.718.41.977a1.41 1.41 0 001.98 0c.263-.26.41-.61.41-.977v-4.377zm-2.8-3.907c0 .366.148.717.41.976a1.41 1.41 0 001.98 0 1.37 1.37 0 000-1.953 1.41 1.41 0 00-1.98 0c-.262.259-.41.61-.41.977z" clip-rule="evenodd"/>
  <path fill="#31B5E1" fill-rule="evenodd" d="M94 11c-7.732 0-14 6.182-14 13.808 0 7.627 6.268 13.809 14 13.809s14-6.182 14-13.809C108 17.182 101.732 11 94 11zM82.8 24.808c0 2.93 1.18 5.74 3.28 7.811A11.28 11.28 0 0094 35.855c2.97 0 5.82-1.164 7.92-3.236a10.971 10.971 0 003.28-7.81c0-2.93-1.18-5.74-3.28-7.812A11.281 11.281 0 0094 13.762a11.28 11.28 0 00-7.92 3.235 10.97 10.97 0 00-3.28 7.811z" clip-rule="evenodd"/>
  <path fill="#fff" d="M75.09 20.434c-3.105-2.676-8.364-4.88-11.843-6.34-.59-.246-1.121-.468-1.573-.666-1.313-.572-3.117-2.176-2.365-4.046.506-1.264 1.815-1.912 3.896-1.933.666-.006 1.399.058 2.181.185 2.719.445 4.786 1.368 5.958 1.892a.638.638 0 00.465.02.592.592 0 00.336-.3l2.616-5.636a.53.53 0 00-.224-.682C72.643 1.783 67.927.102 62.706.153a23.25 23.25 0 00-2.236.128c-4.158.439-8.318 1.512-10.58 6.363-1.41 3.019-1.373 6.403.091 8.83 1.566 2.648 4.1 3.815 7.31 5.288l.413.191c2.316 1.049 5.091 2.213 6.917 2.98 2.699 1.18 3.714 3.312 3.11 4.61-.975 2.091-3.17 2.57-6.983 1.604-3.366-.815-6.488-3.178-7.36-3.883a.63.63 0 00-.894.119l-4.081 5.947a.526.526 0 00.09.702c2.165 1.905 3.926 3.008 6.97 4.366 2.047.912 5.037 1.444 7.998 1.414 3.095-.03 10.646-.771 13.901-6.97 2.076-3.965 1.247-8.115-2.281-11.408z"/>
</svg>
