<svg xmlns="http://www.w3.org/2000/svg" width="53" height="36" fill="none" viewBox="0 0 53 36">
  <path fill="#000" d="M10.921 0C8.71 0 6.665 1.202 5.434 3.206L.828 10.688A5.682 5.682 0 000 13.67v11.925c-.003.8.24 1.576.69 2.208a3.289 3.289 0 001.794 1.279l4.297 1.182c.309 1.618 1.12 3.071 2.298 4.116 1.178 1.044 2.65 1.617 4.171 1.621 3.067 0 5.628-2.306 6.367-5.4H35.04c.738 3.094 3.299 5.4 6.366 5.4 3.068 0 5.628-2.306 6.367-5.4h1.914C51.5 30.6 53 28.97 53 27v-6.58a7.604 7.604 0 00-1.406-4.427c-.91-1.264-2.182-2.16-3.614-2.549l-8.955-2.475-6.47-8.38A6.704 6.704 0 0030.285.68 6.163 6.163 0 0027.484 0H10.92zm0 3.6h7.298v7.2H4.762l3.417-5.57v-.055c.3-.49.708-.89 1.186-1.165a3.044 3.044 0 011.555-.41h.001zm10.61 0h5.953c.982 0 1.908.472 2.535 1.294l4.555 5.906H21.531V3.6zM3.313 14.4h34.574l9.316 2.53c.715.194 1.35.643 1.8 1.276.45.633.692 1.413.684 2.213V27h-1.914c-.739-3.094-3.3-5.4-6.367-5.4s-5.628 2.306-6.366 5.4H19.617c-.739-3.094-3.3-5.4-6.367-5.4-2.937 0-5.403 2.11-6.262 5.006l-3.675-1.01V14.4zm9.937 10.8c1.85 0 3.313 1.59 3.313 3.6s-1.463 3.6-3.313 3.6-3.312-1.59-3.312-3.6 1.462-3.6 3.312-3.6zm28.156 0c1.85 0 3.313 1.59 3.313 3.6s-1.463 3.6-3.313 3.6-3.312-1.59-3.312-3.6 1.462-3.6 3.312-3.6z"/>
</svg>
