<svg xmlns="http://www.w3.org/2000/svg" width="39" height="31" fill="none" viewBox="0 0 39 31">
  <path fill="#000" fill-rule="evenodd" d="M15.64 1.938H3.528c-.401 0-.787.204-1.07.567-.284.363-.444.856-.444 1.37v23.25c0 .514.16 1.007.444 1.37.283.363.669.567 1.07.567H15.64c.402 0 .787-.204 1.071-.567.284-.363.444-.856.444-1.37V3.875c0-.514-.16-1.007-.444-1.37-.284-.363-.669-.567-1.07-.567zM3.528 0c-.803 0-1.573.408-2.141 1.135C.819 1.862.5 2.847.5 3.875v23.25c0 1.028.319 2.013.887 2.74C1.955 30.592 2.725 31 3.528 31H15.64c.803 0 1.574-.408 2.142-1.135.567-.727.887-1.712.887-2.74V3.875c0-1.028-.32-2.013-.887-2.74C17.214.408 16.444 0 15.64 0H3.528z" clip-rule="evenodd"/>
  <path fill="#000" d="M3.528 4.844c0-.257.08-.504.222-.685a.685.685 0 01.535-.284h10.598c.201 0 .394.102.536.284.142.181.221.428.221.685v3.875c0 .257-.08.503-.221.685a.685.685 0 01-.536.284H4.285a.685.685 0 01-.535-.284 1.12 1.12 0 01-.222-.685V4.844zm0 7.75c0-.257.08-.504.222-.685a.685.685 0 01.535-.284H5.8c.2 0 .393.102.535.284.142.181.222.428.222.685v1.937c0 .257-.08.504-.222.685a.685.685 0 01-.535.284H4.285a.685.685 0 01-.535-.284 1.12 1.12 0 01-.222-.685v-1.937zm0 5.812c0-.257.08-.503.222-.685a.685.685 0 01.535-.284H5.8c.2 0 .393.103.535.284.142.182.222.428.222.685v1.938c0 .257-.08.503-.222.685a.685.685 0 01-.535.284H4.285a.685.685 0 01-.535-.284 1.12 1.12 0 01-.222-.685v-1.938zm0 5.813c0-.257.08-.504.222-.685a.685.685 0 01.535-.284H5.8c.2 0 .393.102.535.284.142.181.222.428.222.685v1.937c0 .257-.08.504-.222.685a.685.685 0 01-.535.284H4.285a.685.685 0 01-.535-.284 1.12 1.12 0 01-.222-.685V24.22zM8.07 12.594c0-.257.08-.504.222-.685a.685.685 0 01.535-.284h1.514c.201 0 .394.102.536.284.141.181.221.428.221.685v1.937c0 .257-.08.504-.221.685a.685.685 0 01-.536.284H8.827a.685.685 0 01-.535-.284 1.12 1.12 0 01-.222-.685v-1.937zm0 5.812c0-.257.08-.503.222-.685a.685.685 0 01.535-.284h1.514c.201 0 .394.103.536.284.141.182.221.428.221.685v1.938c0 .257-.08.503-.221.685a.685.685 0 01-.536.284H8.827a.685.685 0 01-.535-.284 1.12 1.12 0 01-.222-.685v-1.938zm0 5.813c0-.257.08-.504.222-.685a.685.685 0 01.535-.284h1.514c.201 0 .394.102.536.284.141.181.221.428.221.685v1.937c0 .257-.08.504-.221.685a.685.685 0 01-.536.284H8.827a.685.685 0 01-.535-.284 1.12 1.12 0 01-.222-.685V24.22zm4.542-11.625c0-.257.08-.504.222-.685a.685.685 0 01.535-.284h1.514c.201 0 .394.102.536.284.142.181.221.428.221.685v1.937c0 .257-.08.504-.221.685a.685.685 0 01-.536.284H13.37a.685.685 0 01-.535-.284 1.12 1.12 0 01-.222-.685v-1.937zm0 5.812c0-.257.08-.503.222-.685a.685.685 0 01.535-.284h1.514c.201 0 .394.103.536.284.142.182.221.428.221.685v7.75c0 .257-.08.504-.221.685a.685.685 0 01-.536.284H13.37a.685.685 0 01-.535-.284 1.12 1.12 0 01-.222-.685v-7.75zM29.5 26c-.828 0-1.5-.895-1.5-2s.672-2 1.5-2 1.5.895 1.5 2-.672 2-1.5 2z"/>
  <path fill="#000" d="M19.882 2c3.244 0 5.883 3.06 5.883 6.824v5.117h5.882v-1.706h4.412c.78 0 1.528.36 2.08 1 .551.64.861 1.507.861 2.412v11.941c0 .905-.31 1.773-.861 2.413-.552.64-1.3.999-2.08.999H21.353c-.78 0-1.528-.36-2.08-1-.551-.64-.861-1.507-.861-2.412v-11.94c0-.906.31-1.774.861-2.413.552-.64 1.3-1 2.08-1h1.47V8.824c0-.905-.31-1.773-.86-2.413-.553-.64-1.3-1-2.08-1s-1.529.36-2.08 1c-.552.64-.862 1.508-.862 2.413v5.117c0 .453-.155.886-.43 1.206-.276.32-.65.5-1.04.5s-.764-.18-1.04-.5A1.853 1.853 0 0114 13.941V8.824C14 5.06 16.638 2 19.882 2zm1.47 25.588H36.06v-11.94h-14.71l.004 11.94z"/>
</svg>
