<svg xmlns="http://www.w3.org/2000/svg" width="56" height="38" fill="none" viewBox="0 0 56 38">
  <path fill="url(#paint0_linear)" d="M50.722 28H5.231L0 37h56l-5.278-9z"/>
  <path fill="#000" d="M7.053 26.928H48.9l5.464 9.144H1.635l5.418-9.144zM6.493 26L0 37h56l-6.586-11H6.492z" opacity=".2"/>
  <path fill="#000" d="M10.649 29.388h-2.99l.374-.735h3.036l-.42.735zM15.366 29.388H12.33l.374-.735h3.082l-.42.735zM19.85 29.388h-3.036l.42-.735h3.036l-.42.735zM24.287 29.388h-2.99l.468-.735h2.802l-.28.735zM28.677 29.388h-2.989l.234-.735h2.522l.233.735zM33.161 29.388h-2.99l-.373-.735h2.85l.513.735zM37.738 29.388h-2.99l-.56-.735h2.99l.56.735zM42.175 29.388h-2.989l-.56-.735h3.035l.514.735zM48.2 29.388h-4.484l-.607-.735h4.67l.421.735zM45.912 30.468H48.9l-.514-.691h-3.036l.56.691zM41.008 30.468h2.989l-.56-.691H40.4l.608.691zM36.524 30.468h2.989l-.514-.691H36.01l.514.691zM31.666 30.468h3.036l-.56-.691h-2.803l.327.691zM27.37 30.468h3.035l-.373-.691H27.51l-.14.691zM23.073 30.468h2.989l.186-.691h-2.895l-.28.691zM18.355 30.468h2.99l.373-.691h-2.896l-.467.691zM13.124 30.468h2.99l.466-.691h-2.989l-.467.691zM6.96 30.468h4.53l.467-.691h-4.53l-.468.691zM35.45 31.592h3.035l-.513-.735h-3.036l.514.735zM30.686 31.592h2.989l-.42-.735h-2.803l.234.735zM25.034 31.592h2.99l-.094-.735h-2.662l-.234.735zM19.663 31.592h2.99l.28-.735h-2.896l-.374.735zM13.965 31.592h3.036l.467-.735h-2.99l-.513.735zM6.399 31.592h5.978l.514-.735H6.819l-.42.735zM40.54 31.592h9.015l-.514-.778h-9.014l.513.778zM47.406 32.672h2.99l-.608-.734H46.8l.607.734zM41.801 32.672h2.99l-.56-.734h-3.037l.607.734zM17.795 32.672h20.457l-.467-.734H18.262l-.467.734zM11.396 32.672h2.99l.373-.734h-2.943l-.42.734zM5.651 32.672h2.99l.373-.734H6.072l-.42.734zM17.468 34.574h20.924l-.887-1.513h-19.15l-.887 1.513z"/>
  <path fill="#ABABAB" d="M54.972 38H.981C.42 38 0 37.744 0 37.462V37h56v.462c0 .282-.467.538-1.028.538z"/>
  <path fill="#000" d="M55.533 37.256v.206c0 .153-.234.282-.514.282H.981c-.28 0-.514-.129-.514-.282v-.206h55.066zM56 37H0v.462c0 .307.467.538.98.538h53.992c.56 0 .981-.256.981-.538V37H56z" opacity=".2"/>
  <path fill="url(#paint1_linear)" d="M51 28H5V1.204C5 .516 5.614 0 6.322 0H49.63c.756 0 1.323.56 1.323 1.204L51 28z"/>
  <path fill="#000" d="M49.63.86c.236 0 .378.172.378.344V27.14H5.945V1.204c0-.215.188-.344.377-.344H49.63zm0-.86H6.322C5.567 0 5 .56 5 1.204V28h46V1.204C51 .516 50.386 0 49.63 0z" opacity=".2"/>
  <path fill="#ABABAB" d="M10 3h36v22H10V3z"/>
  <defs>
    <linearGradient id="paint0_linear" x1="28" x2="28" y1="36.988" y2="28.049" gradientUnits="userSpaceOnUse">
      <stop/>
      <stop offset="1" stop-color="#9E9E9E"/>
    </linearGradient>
    <linearGradient id="paint1_linear" x1="28" x2="28" y1=".049" y2="27.816" gradientUnits="userSpaceOnUse">
      <stop offset=".006"/>
      <stop offset=".999" stop-color="#9E9E9E"/>
    </linearGradient>
  </defs>
</svg>
