<svg xmlns="http://www.w3.org/2000/svg" width="25" height="24" fill="none" viewBox="0 0 33 24">
  <path fill="#31b5e1" fill-rule="evenodd" d="M27.833.803C28.4.29 29.163.002 29.96 0a3.187 3.187 0 012.13.792c.57.51.896 1.203.91 1.931a2.645 2.645 0 01-.837 1.959L16.024 23.114a3.041 3.041 0 01-.984.645 3.287 3.287 0 01-2.372.04 3.069 3.069 0 01-1.01-.61L.965 13.413a2.79 2.79 0 01-.703-.9A2.561 2.561 0 01.22 10.35c.153-.344.38-.658.668-.92.288-.264.631-.471 1.009-.61a3.286 3.286 0 012.37.038c.371.151.706.37.983.642l8.466 7.731L27.756.884a.911.911 0 01.081-.081h-.004z" clip-rule="evenodd"/>
</svg>
