<svg xmlns="http://www.w3.org/2000/svg" width="30" height="31" fill="none" viewBox="0 0 30 31">
  <path fill="#000" fill-rule="evenodd" d="M2.853 12.683c1.382 3.603 5.422 5.224 9.088 4.19l.474 1.235 1.145-2.465-2.562-1.229.48 1.25c-3.134.848-6.547-.43-7.69-3.41-1.221-3.185.48-6.812 3.794-8.083s7.006.287 8.228 3.473c.606 1.582.491 3.273-.184 4.73l1.065.47a7.364 7.364 0 00.1-5.507c-1.466-3.82-5.784-5.727-9.626-4.254-3.842 1.474-5.778 5.78-4.312 9.6z" clip-rule="evenodd"/>
  <path fill="#000" fill-rule="evenodd" d="M5.798 12.141l4.678-1.794L9.058 6.65l-.934.358L9.195 9.8l-3.744 1.436.347.905z" clip-rule="evenodd"/>
  <path fill="#000" d="M20 4c-3.845 0-7 3.155-7 7v2.875A9.969 9.969 0 0010 21c0 5.51 4.49 10 10 10s10-4.49 10-10a9.97 9.97 0 00-3-7.125V11c0-3.845-3.155-7-7-7zm0 2c2.755 0 5 2.245 5 5v1.375C23.525 11.515 21.826 11 20 11s-3.525.516-5 1.375V11c0-2.755 2.245-5 5-5zm0 7c4.43 0 8 3.57 8 8s-3.57 8-8 8-8-3.57-8-8 3.57-8 8-8zm0 6a2 2 0 00-2 2c0 .74.403 1.373 1 1.72V26h2v-3.28c.597-.347 1-.98 1-1.72a2 2 0 00-2-2z"/>
</svg>
