<svg xmlns="http://www.w3.org/2000/svg" width="32" height="31" fill="none" viewBox="0 0 32 31">
  <path fill="#000" d="M17.583.99v2.945C23.838 4.65 28.667 9.55 28.667 15.5c0 4.681-3.04 8.75-7.474 10.617l-3.61-3.325v7.291H25.5l-1.932-1.779c4.956-2.494 8.265-7.32 8.265-12.804 0-7.554-6.254-13.781-14.25-14.51zM14.417.917c-3.088.291-6.017 1.4-8.424 3.223l2.249 2.07a13.587 13.587 0 016.175-2.377V.917zM3.65 6.283C1.687 8.5.483 11.198.167 14.042h3.166c.301-2.071 1.188-4.04 2.581-5.688L3.65 6.284zM6.5 9.667v2.916h4.75v1.459H9.667c-1.742 0-3.167 1.312-3.167 2.916v4.375h7.917v-2.916h-4.75v-1.459h1.583c1.758 0 3.167-1.298 3.167-2.916v-1.459c0-.773-.334-1.515-.928-2.062a3.31 3.31 0 00-2.239-.854H6.5zm9.5 0v7.291h4.75v4.375h3.167v-4.375H25.5v-2.916h-1.583V9.667H20.75v4.375h-1.583V9.667H16zM.167 16.958c.316 2.844 1.536 5.542 3.515 7.759l2.248-2.071c-1.39-1.655-2.285-3.616-2.597-5.688H.167zm8.09 7.832l-2.264 2.07c2.406 1.81 5.334 2.93 8.424 3.223v-2.916a13.365 13.365 0 01-6.16-2.378z"/>
</svg>
