<svg xmlns="http://www.w3.org/2000/svg" width="35" height="29" fill="none" viewBox="0 0 35 29">
  <path fill="#000" d="M25 1c-3.845 0-7 3.155-7 7v2.875A9.969 9.969 0 0015 18c0 5.51 4.49 10 10 10s10-4.49 10-10a9.97 9.97 0 00-3-7.125V8c0-3.845-3.155-7-7-7zm0 2c2.755 0 5 2.245 5 5v1.375C28.525 8.515 26.826 8 25 8s-3.525.516-5 1.375V8c0-2.755 2.245-5 5-5zm0 7c4.43 0 8 3.57 8 8s-3.57 8-8 8-8-3.57-8-8 3.57-8 8-8zm0 6a2 2 0 00-2 2c0 .74.403 1.373 1 1.72V23h2v-3.28c.597-.347 1-.98 1-1.72a2 2 0 00-2-2z"/>
  <path fill="#000" d="M.497 28.498l17 .004.006-28-17-.004-.006 28zm2-4l.005-20a2 2 0 002-2l9 .003a2 2 0 002 2l-.004 20a2 2 0 00-2 2l-9-.002a2 2 0 00-2-2zm2.003-9c1.439.001 2 .562 2 2.001h2c0-.775-.151-1.436-.412-2l5.412.002v-2l-9-.002v2zM7.498 22a1.5 1.5 0 103.002 0 1.5 1.5 0 00-3.002 0zm.004-15a1.5 1.5 0 103 0 1.5 1.5 0 00-3 0z"/>
</svg>
